<svg width="16" height="13" fill="none" xmlns="http://www.w3.org/2000/svg"><path d="M1.77 4.24c.19.134.762.532 1.717 1.193.955.661 1.687 1.17 2.195 1.527.056.04.175.124.356.256a9.533 9.533 0 00.889.59c.17.1.33.176.482.226.15.05.29.075.419.075h.016c.129 0 .269-.025.42-.075.15-.05.31-.126.481-.226.17-.1.316-.191.436-.272.12-.081.27-.187.452-.318.182-.132.3-.217.357-.256l3.92-2.72a3.979 3.979 0 001.023-1.03c.274-.401.41-.823.41-1.264a1.28 1.28 0 00-.397-.945 1.296 1.296 0 00-.943-.394H1.669c-.43 0-.761.145-.993.435-.232.29-.348.653-.348 1.089 0 .351.154.732.461 1.142.307.41.634.733.98.967z" fill="#337D5A"/><path d="M14.506 5.136a174.243 174.243 0 00-4.173 2.888c-.318.234-.577.417-.775.548a4.785 4.785 0 01-.792.402c-.33.136-.637.205-.921.205h-.017c-.285 0-.593-.069-.922-.206a4.787 4.787 0 01-.792-.401 19.84 19.84 0 01-.775-.548c-.754-.553-2.142-1.516-4.164-2.888a4.437 4.437 0 01-.847-.729v6.646c0 .369.131.684.394.946.262.263.578.394.947.394h12.334c.369 0 .684-.131.947-.394.263-.262.394-.577.394-.946V4.407a4.64 4.64 0 01-.838.729z" fill="#337D5A"/></svg>