<svg width="15" height="14" fill="none" xmlns="http://www.w3.org/2000/svg"><path d="M14.314 10.847c-.04-.119-.292-.295-.756-.526a23.146 23.146 0 00-.538-.299 49.49 49.49 0 01-.632-.348 21.093 21.093 0 01-.532-.308l-.249-.174a2.8 2.8 0 00-.353-.214.652.652 0 00-.284-.07c-.133 0-.299.095-.498.284a4.84 4.84 0 00-.547.617 6.005 6.005 0 01-.527.616c-.186.189-.339.283-.458.283a.678.678 0 01-.224-.05 2.309 2.309 0 01-.204-.084 3.74 3.74 0 01-.24-.139 5.84 5.84 0 00-.188-.114 10.46 10.46 0 01-2.34-1.73 10.444 10.444 0 01-1.731-2.337 5.74 5.74 0 00-.115-.19 3.582 3.582 0 01-.14-.238 2.153 2.153 0 01-.084-.204.672.672 0 01-.05-.223c0-.12.095-.272.284-.458.19-.185.395-.361.617-.527.223-.165.428-.348.617-.546.19-.2.284-.365.284-.497a.649.649 0 00-.07-.284 2.762 2.762 0 00-.214-.353 10.093 10.093 0 00-.174-.248 19.88 19.88 0 01-.308-.532 50.23 50.23 0 01-.349-.632 23.61 23.61 0 00-.298-.537C3.78.322 3.605.07 3.485.03A.558.558 0 003.276 0a3.24 3.24 0 00-.701.1 3.944 3.944 0 00-.682.208C1.56.448 1.209.852.838 1.521.499 2.144.33 2.761.33 3.371c0 .178.012.352.035.521.023.17.065.36.124.572.06.212.108.37.145.472.036.103.104.287.204.552.1.265.159.428.179.487.232.65.507 1.23.826 1.74.524.849 1.239 1.726 2.145 2.63.905.905 1.783 1.62 2.632 2.143a9.03 9.03 0 001.742.826c.06.02.222.079.488.179l.552.204c.103.036.26.084.473.144.212.06.403.101.572.124.17.023.344.035.523.035.61 0 1.227-.17 1.851-.507.67-.371 1.075-.723 1.214-1.054a4.01 4.01 0 00.21-.681 3.3 3.3 0 00.099-.701.554.554 0 00-.03-.21z" fill="#337D5A"/></svg>