<svg width="16" height="16" fill="none" xmlns="http://www.w3.org/2000/svg"><path d="M14.926 4.989c-.387-.256-.665-.658-.617-1.051.173-1.39-.759-2.576-2.265-2.793a2.677 2.677 0 01-.775-.261c-.454-.223-.928-.305-1.417-.18-.265.067-.428.037-.638-.137-1.199-.992-3.077-.637-3.665.71-.168.386-.418.612-.809.759a.712.712 0 00-.245.13c-.195.191-.38.144-.617.052-1.526-.594-3.17.384-3.233 1.896-.01.216-.107.45-.234.636-.454.667-.534 1.337-.23 2.03-.219.5-.028 1.125.513 1.487.592.398 1.276.19 1.8-.194.148-.013.299-.04.453-.084.308-.086.586-.19.845-.074.042.028.084.052.127.075l.034.027.004-.006c.086.042.174.074.265.098.504 1.627 1.587 3.053 3.074 4.063a7.2 7.2 0 01-.92 2.927c-.604.337-1.339.093-1.97-.067-.558-.141-1.102-.193-1.659-.03-.115.033-.169.116-.174.203l-.003.007-.127.497c-.04.156.083.262.216.283a.28.28 0 00.067.008h10.31a.234.234 0 00.195-.088.224.224 0 00.1-.18v-.345c0-.102-.077-.19-.18-.219a.25.25 0 00-.156-.05H9.879a27.027 27.027 0 00-.475-.49c-.452-.455-.652-.96-.449-1.573.071-.212.122-.433.151-.654.087-.653.168-1.31.25-1.976 1.046-.09 1.992-.498 2.726-1.19.305 0 .578-.083.806-.223l.091-.026c.497.367 1.264.404 1.842.209.537-.181 1-.671 1.017-1.21a1.238 1.238 0 00-.006-.15c.418-.983.036-2.223-.906-2.846zm-9.094 2.96l.016-.005c.108-.038.297.006.394.075.137.097.267.203.393.311l.006.027.58 1.774c.047.297.076.593.092.888-1.001-.753-1.549-1.87-1.481-3.07zm3.756 1.71c.045-.1.09-.199.138-.298h.047c0-.034 0-.068.002-.102.13-.265.27-.524.429-.771.202.162.412.308.636.428a5.144 5.144 0 01-1.252.742z" fill="#337D5A"/></svg>