<svg width="19" height="19" fill="none" xmlns="http://www.w3.org/2000/svg"><path d="M15.13 7.077V5.102C15.13 2.289 12.604 0 9.5 0S3.87 2.289 3.87 5.102v1.975A2.546 2.546 0 001.76 9.58v6.876A2.546 2.546 0 004.303 19h10.395a2.546 2.546 0 002.543-2.544V9.581a2.546 2.546 0 00-2.11-2.504zM4.575 5.102C4.575 2.677 6.785.704 9.5.704s4.925 1.973 4.925 4.398v1.935h-9.85V5.102zm6.333 8.268c0 .777-.631 1.408-1.407 1.408a1.409 1.409 0 01-1.408-1.408v-2.11a1.409 1.409 0 012.815 0v2.11z" fill="#337D5A"/></svg>