<svg width="10" height="10" fill="none" xmlns="http://www.w3.org/2000/svg"><g clip-path="url(#clip0_412_36)"><path d="M9.98 7.748c-.028-.085-.208-.21-.54-.376-.09-.052-.218-.123-.383-.213a32.36 32.36 0 01-.831-.469 9.405 9.405 0 00-.178-.124 1.95 1.95 0 00-.252-.153.465.465 0 00-.202-.05c-.095 0-.213.068-.355.203a3.459 3.459 0 00-.39.44 4.28 4.28 0 01-.377.44c-.133.135-.242.203-.327.203a.483.483 0 01-.16-.036 1.658 1.658 0 01-.145-.06 2.649 2.649 0 01-.17-.1 4.394 4.394 0 00-.136-.081 7.463 7.463 0 01-1.669-1.236A7.46 7.46 0 012.63 4.467a4.083 4.083 0 00-.082-.135 2.566 2.566 0 01-.1-.17 1.54 1.54 0 01-.06-.146.48.48 0 01-.035-.16c0-.085.067-.194.202-.326a4.25 4.25 0 01.44-.377c.159-.118.306-.248.44-.39.136-.142.203-.26.203-.355a.464.464 0 00-.05-.203 1.973 1.973 0 00-.152-.252c-.07-.1-.11-.159-.125-.178a19.31 19.31 0 01-.22-.38 35.99 35.99 0 01-.248-.45A16.9 16.9 0 002.629.56C2.464.23 2.34.05 2.253.021A.398.398 0 002.104 0a2.34 2.34 0 00-.5.071 2.812 2.812 0 00-.487.15C.88.32.629.607.364 1.086c-.242.445-.362.885-.362 1.32a2.743 2.743 0 00.113.782c.043.151.077.264.103.337l.146.394c.07.19.114.306.128.348.165.464.362.878.59 1.243.373.606.883 1.232 1.53 1.879.646.646 1.272 1.156 1.878 1.53.365.227.78.424 1.243.59.043.014.159.056.348.128.19.07.32.12.394.145.073.026.186.06.337.103.152.043.288.073.409.09.12.016.245.024.373.024.435 0 .876-.12 1.32-.362.479-.265.768-.516.867-.753.052-.118.102-.28.15-.487.047-.206.07-.372.07-.5a.397.397 0 00-.021-.15z" fill="#337D5A"/></g><defs><clipPath id="clip0_412_36"><path fill="#fff" d="M0 0h10v10H0z"/></clipPath></defs></svg>