<svg width="31" height="31" fill="none" xmlns="http://www.w3.org/2000/svg"><circle cx="15.5" cy="15.5" r="15.5" fill="#337D5A"/><g clip-path="url(#clip0_338_440)"><path d="M18.27 22.261a.554.554 0 01-.31-.095l-3.52-2.388-1.889 1.359a.555.555 0 01-.86-.309l-.948-3.593-3.387-1.295a.554.554 0 01-.007-1.032l12.88-5.125a.553.553 0 01.76.621l-2.174 11.407a.554.554 0 01-.545.45zm-3.522-3.613l3.136 2.127 1.691-8.876-6.11 5.88 1.268.86.015.01zm-2.61-.473l.42 1.591.904-.65-1.184-.804a.554.554 0 01-.14-.137zm-3.059-2.763l2.326.89a.554.554 0 01.338.376l.295 1.118a.555.555 0 01.167-.342l5.821-5.602-8.947 3.56z" fill="#fff"/></g><defs><clipPath id="clip0_338_440"><path fill="#fff" transform="translate(7 9)" d="M0 0h14v14H0z"/></clipPath></defs></svg>