<svg width="31" height="31" fill="none" xmlns="http://www.w3.org/2000/svg"><circle cx="15.5" cy="15.5" r="15.5" fill="#337D5A"/><g clip-path="url(#clip0_338_430)" fill="#fff"><path d="M12.154 24a.344.344 0 01-.344-.344c0-.865-.001-1.732.002-2.598 0-.098-.034-.155-.126-.188-.176-.063-.35-.132-.53-.189-1.065-.336-1.798-1.035-2.312-1.974-.281-.516-.451-1.068-.581-1.635a11.04 11.04 0 01-.26-2.787c.018-.607.07-1.21.163-1.81.073-.472.14-.947.249-1.414.257-1.09.87-1.96 1.794-2.624.566-.406 1.196-.691 1.863-.904a10.827 10.827 0 011.671-.374c.809-.123 1.621-.18 2.437-.154.498.017.998.053 1.495.1.707.068 1.407.179 2.094.356.659.17 1.286.413 1.862.77 1.001.619 1.624 1.501 1.928 2.607.192.696.32 1.404.384 2.121.07.769.072 1.537.024 2.307a11.8 11.8 0 01-.146 1.36c-.157.876-.424 1.715-.884 2.488-.347.582-.844 1.024-1.444 1.358a6.087 6.087 0 01-1.675.605c-.463.101-.932.161-1.405.198-1.065.08-2.13.113-3.198.14-.035.002-.081.016-.103.04-.642.681-1.327 1.32-2.005 1.965-.19.182-.382.364-.578.542a.142.142 0 01-.092.036l-.283.002zm.418-1.195c-.002.028.034.045.053.024.226-.216.457-.427.68-.647.412-.403.82-.81 1.224-1.22a.94.94 0 01.66-.289c.756-.029 1.512-.052 2.266-.081a14.36 14.36 0 001.852-.173c.597-.101 1.173-.261 1.711-.537.6-.306 1.067-.744 1.372-1.333.358-.695.585-1.43.704-2.2.092-.598.127-1.202.14-1.805a12.51 12.51 0 00-.176-2.472 8.99 8.99 0 00-.322-1.322 3.422 3.422 0 00-1.272-1.734c-.495-.354-1.047-.596-1.633-.77-.49-.144-.992-.238-1.497-.314a18.005 18.005 0 00-1.571-.168 13.679 13.679 0 00-2.246.042c-.583.06-1.16.148-1.726.291a6.673 6.673 0 00-1.954.808c-.88.556-1.455 1.326-1.68 2.324-.102.459-.169.927-.242 1.392-.087.568-.135 1.14-.15 1.712-.018.696.023 1.389.142 2.075.084.482.197.958.368 1.418.202.538.484 1.027.908 1.432.297.284.629.515 1.03.644.24.077.475.17.712.262.172.066.333.154.454.297.146.172.193.374.193.593v1.751z"/><path d="M18.419 19.195a1.405 1.405 0 01-.494-.116c-1.206-.496-2.325-1.133-3.33-1.952a11.511 11.511 0 01-2.429-2.735c-.387-.602-.682-1.244-.938-1.906-.049-.126-.115-.248-.14-.379-.12-.616.115-1.095.625-1.458a1.93 1.93 0 01.749-.31c.26-.053.48.034.668.205.37.336.689.713.954 1.132.124.194.236.396.343.6.159.302.103.56-.16.786-.1.085-.207.163-.308.246-.348.288-.428.575-.26.987.252.62.644 1.141 1.164 1.574.399.33.846.582 1.33.773.343.135.642.01.851-.28.097-.136.197-.265.338-.36.26-.172.538-.172.824-.073.192.066.362.174.524.29.373.27.75.537 1.119.812.171.128.3.291.333.508a.81.81 0 01-.08.444c-.215.483-.577.831-1.064 1.058-.25.121-.384.154-.62.154zm-1.956-9.61c1.157.006 2.21.444 3.047 1.338.566.605.902 1.32 1.015 2.13.066.47.044.94-.06 1.405-.04.178-.16.29-.328.304-.176.014-.34-.076-.403-.22a.406.406 0 01-.012-.25c.201-.964.022-1.854-.581-2.647-.553-.725-1.302-1.151-2.223-1.285a3.542 3.542 0 00-1.247.05.358.358 0 01-.43-.278.35.35 0 01.263-.437c.286-.071.576-.1.959-.11z"/><path d="M19.4 13.204a3.005 3.005 0 01-.02.91c-.03.2-.202.314-.421.289-.203-.023-.343-.18-.329-.377.01-.136.035-.271.037-.408.01-.964-.627-1.81-1.578-2.09a2.258 2.258 0 00-1.024-.063c-.356.062-.514-.25-.444-.482a.331.331 0 01.277-.24c1.04-.163 1.94.114 2.683.838.46.448.729.996.819 1.623z"/><path d="M16.412 11.806c.924.012 1.725.697 1.85 1.575.015.115.026.235.012.35-.025.196-.195.309-.414.292a.35.35 0 01-.337-.348 1.088 1.088 0 00-.192-.638c-.23-.325-.55-.486-.957-.494-.163-.003-.29-.068-.35-.219a.367.367 0 01.077-.417.389.389 0 01.311-.101z"/></g><defs><clipPath id="clip0_338_430"><path fill="#fff" transform="translate(8 7)" d="M0 0h16v17H0z"/></clipPath></defs></svg>