<svg width="16" height="13" viewBox="0 0 16 13" fill="none" xmlns="http://www.w3.org/2000/svg">
<path d="M1.76933 4.23998C1.95927 4.37388 2.53184 4.77155 3.48706 5.43279C4.4423 6.09404 5.17409 6.60318 5.68244 6.96025C5.73829 6.99939 5.85695 7.08447 6.03847 7.21561C6.22002 7.34684 6.37087 7.45288 6.49091 7.53377C6.61103 7.61463 6.75625 7.70534 6.92671 7.80576C7.09711 7.90609 7.25774 7.98155 7.40856 8.03151C7.55941 8.08188 7.69905 8.10683 7.82751 8.10683H7.83594H7.84439C7.97285 8.10683 8.11255 8.08185 8.2634 8.03151C8.41417 7.98155 8.57494 7.906 8.74519 7.80576C8.91553 7.70523 9.06075 7.6146 9.18088 7.53377C9.301 7.45288 9.45174 7.34684 9.63335 7.21561C9.81484 7.08435 9.93365 6.99939 9.9895 6.96025C10.5033 6.60318 11.8106 5.69634 13.9109 4.2398C14.3187 3.95533 14.6594 3.61207 14.9331 3.21026C15.207 2.80863 15.3438 2.3873 15.3438 1.9465C15.3438 1.57814 15.211 1.26282 14.9456 1.00057C14.6803 0.73826 14.366 0.607178 14.003 0.607178H1.66875C1.23864 0.607178 0.907647 0.752245 0.675821 1.04238C0.444024 1.33257 0.328125 1.6953 0.328125 2.13053C0.328125 2.48208 0.481795 2.86305 0.78899 3.27318C1.09615 3.68334 1.42304 4.00564 1.76933 4.23998Z" fill="#337D5A"/>
<path d="M14.5057 5.13568C12.6737 6.37441 11.2825 7.3371 10.333 8.02356C10.0146 8.25784 9.75629 8.44073 9.55792 8.57178C9.35955 8.70292 9.09574 8.83685 8.76609 8.9735C8.43656 9.11036 8.12945 9.17858 7.84451 9.17858H7.83597H7.82754C7.54265 9.17858 7.23537 9.11036 6.90584 8.9735C6.57631 8.83685 6.31232 8.70292 6.11401 8.57178C5.91576 8.44073 5.65737 8.25784 5.339 8.02356C4.58482 7.47114 3.19668 6.50839 1.17452 5.13568C0.856022 4.92377 0.573921 4.68086 0.328125 4.40747V11.0535C0.328125 11.422 0.459344 11.7372 0.721928 11.9994C0.984453 12.2618 1.30013 12.393 1.66884 12.393H14.0032C14.3718 12.393 14.6874 12.2618 14.95 11.9994C15.2126 11.7371 15.3438 11.422 15.3438 11.0535V4.40747C15.1035 4.67521 14.8243 4.91811 14.5057 5.13568Z" fill="#337D5A"/>
</svg>
