<svg width="16" height="16" viewBox="0 0 16 16" fill="none" xmlns="http://www.w3.org/2000/svg">
<path d="M14.926 4.98861C14.5392 4.73269 14.2607 4.33127 14.3095 3.93763C14.4817 2.54822 13.55 1.36152 12.0439 1.145C11.7765 1.10649 11.5102 1.00157 11.2691 0.883548C10.8147 0.660969 10.3412 0.579002 9.85155 0.703812C9.58712 0.771273 9.42443 0.741162 9.21428 0.567284C8.01548 -0.424745 6.13669 -0.0702013 5.54936 1.27623C5.38075 1.66294 5.1314 1.88865 4.74047 2.03577C4.65319 2.06864 4.5574 2.10573 4.4954 2.16643C4.30026 2.35744 4.1143 2.31031 3.87789 2.2184C2.35173 1.62427 0.708183 2.6019 0.644574 4.11373C0.635544 4.32967 0.537573 4.5641 0.410847 4.75029C-0.0428307 5.41744 -0.123051 6.08672 0.181497 6.78018C-0.0378073 7.28088 0.153452 7.90516 0.693637 8.2673C1.28637 8.6648 1.96989 8.45738 2.49371 8.07261C2.64198 8.05974 2.79286 8.03228 2.9469 7.98918C3.25483 7.90287 3.53285 7.79978 3.79249 7.9147C3.8336 7.94262 3.87585 7.96743 3.91872 7.99033C3.93019 7.99907 3.94162 8.00723 3.95306 8.01698C3.95457 8.01481 3.95583 8.01307 3.95734 8.0109C4.04283 8.05306 4.13149 8.085 4.22229 8.10937C4.72601 9.73646 5.80885 11.1616 7.29584 12.1717C7.2052 13.1669 6.91535 14.1426 6.37529 15.0988C5.77248 15.4356 5.03706 15.192 4.40584 15.0322C3.84781 14.891 3.30448 14.839 2.74735 15.0014C2.63205 15.0351 2.57837 15.1184 2.5727 15.2047C2.57196 15.2072 2.57082 15.2091 2.57017 15.2116C2.52792 15.3776 2.48567 15.5435 2.44341 15.7094C2.40394 15.8646 2.52629 15.9709 2.65893 15.9918C2.67967 15.9967 2.70167 16 2.72608 16H13.0367C13.1271 16 13.1914 15.9637 13.2313 15.9122C13.2907 15.8698 13.3301 15.8048 13.3301 15.7318V15.387C13.3301 15.285 13.2536 15.1976 13.1512 15.1684C13.1121 15.1383 13.0605 15.1189 12.9947 15.1189H9.87925C9.72448 14.9555 9.56691 14.7904 9.40422 14.6271C8.95156 14.1728 8.75188 13.6672 8.95535 13.0554C9.02601 12.8429 9.07693 12.6219 9.10633 12.4014C9.1932 11.748 9.27444 11.0914 9.35682 10.4253C10.4025 10.3343 11.348 9.92679 12.0821 9.23539C12.3866 9.23471 12.66 9.15218 12.8879 9.01208L12.9794 8.98611C13.4762 9.35251 14.2425 9.39031 14.8214 9.19494C15.3578 9.01391 15.8217 8.52354 15.8379 7.98445C15.8394 7.93397 15.8366 7.884 15.8319 7.83446C16.2495 6.85152 15.8676 5.61176 14.926 4.98861ZM5.83169 7.94974C5.8376 7.94769 5.8425 7.94605 5.84839 7.944C5.95641 7.90642 6.14465 7.94952 6.24185 8.01856C6.3789 8.11602 6.50852 8.22221 6.63528 8.33023C6.6378 8.33941 6.63793 8.34792 6.64107 8.35736C6.83458 8.94839 7.02812 9.53957 7.2216 10.1306C7.26776 10.4285 7.29716 10.7244 7.31313 11.0188C6.3119 10.2664 5.76416 9.14911 5.83169 7.94974ZM9.58793 9.6581C9.6332 9.55901 9.67856 9.45997 9.72575 9.36136C9.74146 9.36136 9.7573 9.36136 9.77302 9.36124C9.77302 9.3271 9.77388 9.29285 9.77515 9.25852C9.90428 8.99386 10.0454 8.73505 10.2038 8.48774C10.4056 8.65035 10.6158 8.79643 10.8398 8.91558C10.4648 9.21849 10.0445 9.46721 9.58793 9.6581Z" fill="#337D5A"/>
</svg>
