<svg width="125" height="39" fill="none" xmlns="http://www.w3.org/2000/svg"><path d="M4.134.56S0 1.402 0 5.656v26.017s.46-5.241 4.134-5.241H82l-7.94-13.397L82 .56H4.134z" fill="#DD133B"/><path d="M22.61 10.571h1.48l2.59 7.1H25l-.55-1.59h-2.21l-.54 1.59h-1.68l2.59-7.1zm1.57 4.38l-.83-2.51-.85 2.51h1.68zm5.47-1.56h.37l2.07-2.82h1.85l-2.55 3.43 2.78 3.67h-1.83l-2.17-2.79h-.52v2.79h-1.64v-7.1h1.64v2.82zm10.808 4.28h-5.14v-7.1h1.64v5.66h2.41v-5.66h1.64v5.66h1.03v3.16h-1.58v-1.72zm4.727-2.55l3.34-4.55h1.22v7.1h-1.64v-4.44l-3.3 4.44h-1.27v-7.1h1.65v4.55zm10.247 2.55v-2.56h-.85l-1.58 2.56h-1.78l1.72-2.75c-.4-.173-.716-.44-.95-.8-.226-.366-.34-.793-.34-1.28 0-.32.057-.616.17-.89.12-.273.28-.513.48-.72.207-.206.45-.366.73-.48.287-.12.6-.18.94-.18h3.1v7.1h-1.64zm0-5.7h-1.25a.906.906 0 00-.32.06.846.846 0 00-.28.16.774.774 0 00-.2.27.944.944 0 00-.07.38c0 .294.084.514.25.66.167.14.367.21.6.21h1.27v-1.74z" fill="#fff"/></svg>