<svg width="12" height="12" fill="none" xmlns="http://www.w3.org/2000/svg"><g clip-path="url(#clip0_338_18)"><path d="M11.976 9.298c-.034-.102-.25-.253-.648-.452a19.76 19.76 0 00-.46-.256 29.366 29.366 0 01-.997-.562 11.136 11.136 0 00-.213-.15 2.395 2.395 0 00-.303-.183.558.558 0 00-.243-.06c-.113.001-.255.082-.426.244a4.15 4.15 0 00-.468.528 5.14 5.14 0 01-.452.529c-.159.162-.29.243-.392.243a.58.58 0 01-.192-.043 1.989 1.989 0 01-.175-.072c-.04-.02-.107-.06-.204-.12a5.283 5.283 0 00-.162-.098 8.956 8.956 0 01-2.003-1.483A8.951 8.951 0 013.155 5.36a4.945 4.945 0 00-.098-.162c-.06-.096-.1-.164-.12-.204a1.848 1.848 0 01-.072-.175.577.577 0 01-.042-.192c0-.102.08-.232.243-.392.162-.159.338-.31.528-.451.19-.142.367-.298.529-.469.161-.17.242-.312.242-.426 0-.08-.02-.16-.06-.243a2.37 2.37 0 00-.182-.302l-.15-.214a18.685 18.685 0 01-.264-.455c-.09-.162-.19-.343-.298-.542a20.284 20.284 0 00-.256-.46C2.956.276 2.805.06 2.704.026A.477.477 0 002.524 0c-.153 0-.353.028-.6.085a3.375 3.375 0 00-.584.18C1.056.382.755.73.437 1.303c-.29.534-.435 1.062-.435 1.585a3.291 3.291 0 00.136.938c.051.181.093.316.124.404.031.088.09.246.175.473.085.228.136.367.153.418a7.72 7.72 0 00.707 1.491c.449.728 1.061 1.48 1.837 2.255.775.775 1.527 1.387 2.254 1.836.437.273.935.509 1.491.708.052.017.19.068.418.153.227.085.385.144.473.175.088.031.223.072.405.124a3.268 3.268 0 00.937.136c.523 0 1.051-.145 1.585-.435.574-.318.92-.619 1.04-.903.063-.142.122-.337.179-.584.057-.247.085-.447.085-.6 0-.08-.008-.14-.025-.18z" fill="#337D5A"/></g><defs><clipPath id="clip0_338_18"><path fill="#fff" d="M0 0h12v12H0z"/></clipPath></defs></svg>