<svg width="106" height="51" viewBox="0 0 106 51" fill="none" xmlns="http://www.w3.org/2000/svg">
<rect width="106" height="45" fill="#337D5A"/>
<path d="M9.35763 20V10.77H16.8326V20H15.0516V12.343H11.1386V20H9.35763ZM22.6899 20.13C22.1613 20.13 21.6933 20.013 21.2859 19.779C20.8873 19.5363 20.5753 19.2113 20.3499 18.804V22.769H18.6079V13.188H20.1289V14.358C20.3889 13.9593 20.7183 13.6473 21.1169 13.422C21.5156 13.188 21.9706 13.071 22.4819 13.071C22.9413 13.071 23.3616 13.162 23.7429 13.344C24.1329 13.526 24.4709 13.7817 24.7569 14.111C25.0429 14.4317 25.2639 14.8043 25.4199 15.229C25.5846 15.645 25.6669 16.0957 25.6669 16.581C25.6669 17.2397 25.5369 17.8377 25.2769 18.375C25.0256 18.9123 24.6746 19.3413 24.2239 19.662C23.7819 19.974 23.2706 20.13 22.6899 20.13ZM22.1049 18.648C22.3736 18.648 22.6163 18.5917 22.8329 18.479C23.0496 18.3663 23.2359 18.2147 23.3919 18.024C23.5566 17.8247 23.6779 17.6037 23.7559 17.361C23.8426 17.1097 23.8859 16.8497 23.8859 16.581C23.8859 16.295 23.8383 16.0307 23.7429 15.788C23.6563 15.5453 23.5263 15.333 23.3529 15.151C23.1796 14.9603 22.9759 14.813 22.7419 14.709C22.5166 14.605 22.2696 14.553 22.0009 14.553C21.8363 14.553 21.6673 14.5833 21.4939 14.644C21.3293 14.696 21.1689 14.774 21.0129 14.878C20.8569 14.982 20.7183 15.1033 20.5969 15.242C20.4843 15.3807 20.4019 15.5323 20.3499 15.697V17.296C20.4539 17.5473 20.5926 17.777 20.7659 17.985C20.9479 18.193 21.1559 18.3577 21.3899 18.479C21.6239 18.5917 21.8623 18.648 22.1049 18.648ZM29.9932 20.13C29.4385 20.13 28.9402 20.039 28.4982 19.857C28.0562 19.6663 27.6792 19.4063 27.3672 19.077C27.0639 18.7477 26.8299 18.3707 26.6652 17.946C26.5005 17.5213 26.4182 17.075 26.4182 16.607C26.4182 16.1303 26.5005 15.6797 26.6652 15.255C26.8299 14.8303 27.0639 14.4533 27.3672 14.124C27.6792 13.7947 28.0562 13.539 28.4982 13.357C28.9402 13.1663 29.4385 13.071 29.9932 13.071C30.5479 13.071 31.0419 13.1663 31.4752 13.357C31.9172 13.539 32.2942 13.7947 32.6062 14.124C32.9182 14.4533 33.1522 14.8303 33.3082 15.255C33.4729 15.6797 33.5552 16.1303 33.5552 16.607C33.5552 17.075 33.4729 17.5213 33.3082 17.946C33.1522 18.3707 32.9182 18.7477 32.6062 19.077C32.3029 19.4063 31.9302 19.6663 31.4882 19.857C31.0462 20.039 30.5479 20.13 29.9932 20.13ZM28.2122 16.607C28.2122 17.0057 28.2902 17.361 28.4462 17.673C28.6022 17.9763 28.8145 18.2147 29.0832 18.388C29.3519 18.5613 29.6552 18.648 29.9932 18.648C30.3225 18.648 30.6215 18.5613 30.8902 18.388C31.1589 18.206 31.3712 17.9633 31.5272 17.66C31.6919 17.348 31.7742 16.9927 31.7742 16.594C31.7742 16.204 31.6919 15.853 31.5272 15.541C31.3712 15.229 31.1589 14.9863 30.8902 14.813C30.6215 14.6397 30.3225 14.553 29.9932 14.553C29.6552 14.553 29.3519 14.644 29.0832 14.826C28.8145 14.9993 28.6022 15.242 28.4462 15.554C28.2902 15.8573 28.2122 16.2083 28.2122 16.607ZM37.903 20.13C37.3483 20.13 36.85 20.039 36.408 19.857C35.966 19.6663 35.589 19.4063 35.277 19.077C34.965 18.739 34.7223 18.3577 34.549 17.933C34.3843 17.5083 34.302 17.062 34.302 16.594C34.302 15.9527 34.445 15.3677 34.731 14.839C35.0257 14.3017 35.4417 13.8727 35.979 13.552C36.5163 13.2313 37.1533 13.071 37.89 13.071C38.6267 13.071 39.2593 13.2313 39.788 13.552C40.3167 13.8727 40.711 14.293 40.971 14.813L39.268 15.333C39.1207 15.0817 38.9257 14.891 38.683 14.761C38.4403 14.6223 38.1717 14.553 37.877 14.553C37.5477 14.553 37.2443 14.6397 36.967 14.813C36.6983 14.9777 36.486 15.216 36.33 15.528C36.174 15.8313 36.096 16.1867 36.096 16.594C36.096 16.9927 36.174 17.348 36.33 17.66C36.4947 17.9633 36.7113 18.206 36.98 18.388C37.2487 18.5613 37.5477 18.648 37.877 18.648C38.085 18.648 38.28 18.6133 38.462 18.544C38.6527 18.4747 38.8217 18.3793 38.969 18.258C39.1163 18.1367 39.2247 17.998 39.294 17.842L40.997 18.362C40.841 18.7 40.6113 19.0033 40.308 19.272C40.0133 19.5407 39.6623 19.753 39.255 19.909C38.8563 20.0563 38.4057 20.13 37.903 20.13ZM42.0689 20V13.188H43.8889L46.0209 17.127L48.1659 13.188H49.9599V20H48.3089V15.593L46.5669 18.791H45.4749L43.7199 15.593V20H42.0689ZM54.711 20.13C54.1563 20.13 53.658 20.039 53.216 19.857C52.774 19.6663 52.397 19.4063 52.085 19.077C51.7816 18.7477 51.5476 18.3707 51.383 17.946C51.2183 17.5213 51.136 17.075 51.136 16.607C51.136 16.1303 51.2183 15.6797 51.383 15.255C51.5476 14.8303 51.7816 14.4533 52.085 14.124C52.397 13.7947 52.774 13.539 53.216 13.357C53.658 13.1663 54.1563 13.071 54.711 13.071C55.2656 13.071 55.7596 13.1663 56.193 13.357C56.635 13.539 57.012 13.7947 57.324 14.124C57.636 14.4533 57.87 14.8303 58.026 15.255C58.1906 15.6797 58.273 16.1303 58.273 16.607C58.273 17.075 58.1906 17.5213 58.026 17.946C57.87 18.3707 57.636 18.7477 57.324 19.077C57.0206 19.4063 56.648 19.6663 56.206 19.857C55.764 20.039 55.2656 20.13 54.711 20.13ZM52.93 16.607C52.93 17.0057 53.008 17.361 53.164 17.673C53.32 17.9763 53.5323 18.2147 53.801 18.388C54.0696 18.5613 54.373 18.648 54.711 18.648C55.0403 18.648 55.3393 18.5613 55.608 18.388C55.8766 18.206 56.089 17.9633 56.245 17.66C56.4096 17.348 56.492 16.9927 56.492 16.594C56.492 16.204 56.4096 15.853 56.245 15.541C56.089 15.229 55.8766 14.9863 55.608 14.813C55.3393 14.6397 55.0403 14.553 54.711 14.553C54.373 14.553 54.0696 14.644 53.801 14.826C53.5323 14.9993 53.32 15.242 53.164 15.554C53.008 15.8573 52.93 16.2083 52.93 16.607ZM61.0218 20V14.709H58.8638V13.188H64.9348V14.709H62.7638V20H61.0218ZM69.9927 20.13C69.464 20.13 68.996 20.013 68.5887 19.779C68.19 19.5363 67.878 19.2113 67.6527 18.804V22.769H65.9107V13.188H67.4317V14.358C67.6917 13.9593 68.021 13.6473 68.4197 13.422C68.8183 13.188 69.2733 13.071 69.7847 13.071C70.244 13.071 70.6643 13.162 71.0457 13.344C71.4357 13.526 71.7737 13.7817 72.0597 14.111C72.3457 14.4317 72.5667 14.8043 72.7227 15.229C72.8873 15.645 72.9697 16.0957 72.9697 16.581C72.9697 17.2397 72.8397 17.8377 72.5797 18.375C72.3283 18.9123 71.9773 19.3413 71.5267 19.662C71.0847 19.974 70.5733 20.13 69.9927 20.13ZM69.4077 18.648C69.6763 18.648 69.919 18.5917 70.1357 18.479C70.3523 18.3663 70.5387 18.2147 70.6947 18.024C70.8593 17.8247 70.9807 17.6037 71.0587 17.361C71.1453 17.1097 71.1887 16.8497 71.1887 16.581C71.1887 16.295 71.141 16.0307 71.0457 15.788C70.959 15.5453 70.829 15.333 70.6557 15.151C70.4823 14.9603 70.2787 14.813 70.0447 14.709C69.8193 14.605 69.5723 14.553 69.3037 14.553C69.139 14.553 68.97 14.5833 68.7967 14.644C68.632 14.696 68.4717 14.774 68.3157 14.878C68.1597 14.982 68.021 15.1033 67.8997 15.242C67.787 15.3807 67.7047 15.5323 67.6527 15.697V17.296C67.7567 17.5473 67.8953 17.777 68.0687 17.985C68.2507 18.193 68.4587 18.3577 68.6927 18.479C68.9267 18.5917 69.165 18.648 69.4077 18.648ZM77.3089 20.13C76.7629 20.13 76.2689 20.039 75.8269 19.857C75.3849 19.6663 75.0079 19.4107 74.6959 19.09C74.3839 18.7607 74.1413 18.388 73.9679 17.972C73.8033 17.5473 73.7209 17.101 73.7209 16.633C73.7209 15.983 73.8639 15.3893 74.1499 14.852C74.4446 14.3147 74.8606 13.8857 75.3979 13.565C75.9439 13.2357 76.5853 13.071 77.3219 13.071C78.0673 13.071 78.7043 13.2357 79.2329 13.565C79.7616 13.8857 80.1646 14.3147 80.4419 14.852C80.7279 15.3807 80.8709 15.9527 80.8709 16.568C80.8709 16.672 80.8666 16.7803 80.8579 16.893C80.8493 16.997 80.8406 17.0837 80.8319 17.153H75.5669C75.6016 17.4997 75.7013 17.803 75.8659 18.063C76.0393 18.323 76.2559 18.5223 76.5159 18.661C76.7846 18.791 77.0706 18.856 77.3739 18.856C77.7206 18.856 78.0456 18.7737 78.3489 18.609C78.6609 18.4357 78.8733 18.2103 78.9859 17.933L80.4809 18.349C80.3163 18.6957 80.0779 19.0033 79.7659 19.272C79.4626 19.5407 79.1029 19.753 78.6869 19.909C78.2709 20.0563 77.8116 20.13 77.3089 20.13ZM75.5279 16.048H79.0899C79.0553 15.7013 78.9556 15.4023 78.7909 15.151C78.6349 14.891 78.4269 14.6917 78.1669 14.553C77.9069 14.4057 77.6166 14.332 77.2959 14.332C76.9839 14.332 76.6979 14.4057 76.4379 14.553C76.1866 14.6917 75.9786 14.891 75.8139 15.151C75.6579 15.4023 75.5626 15.7013 75.5279 16.048ZM83.5052 20V14.709H81.3472V13.188H87.4182V14.709H85.2472V20H83.5052ZM88.3941 20V13.188H90.1361V15.333H91.6831C92.4977 15.333 93.1217 15.541 93.5551 15.957C93.9884 16.373 94.2051 16.9233 94.2051 17.608C94.2051 18.0673 94.1141 18.479 93.9321 18.843C93.7501 19.207 93.4814 19.493 93.1261 19.701C92.7707 19.9003 92.3287 20 91.8001 20H88.3941ZM90.1361 18.674H91.5271C91.7611 18.674 91.9517 18.6263 92.0991 18.531C92.2551 18.4357 92.3677 18.31 92.4371 18.154C92.5151 17.998 92.5541 17.8203 92.5541 17.621C92.5541 17.4303 92.5194 17.2613 92.4501 17.114C92.3807 16.958 92.2681 16.8367 92.1121 16.75C91.9647 16.6547 91.7654 16.607 91.5141 16.607H90.1361V18.674ZM38.6346 34.104C37.9066 34.104 37.3 33.974 36.8146 33.714C36.3293 33.454 35.948 33.0943 35.6706 32.635L37.0746 31.998C37.222 32.2233 37.4126 32.401 37.6466 32.531C37.8893 32.6523 38.1883 32.713 38.5436 32.713C38.951 32.713 39.263 32.635 39.4796 32.479C39.705 32.3143 39.8176 32.102 39.8176 31.842C39.8176 31.5993 39.7266 31.4043 39.5446 31.257C39.3626 31.1097 39.094 31.036 38.7386 31.036H38.0366V29.957H38.7516C38.9163 29.957 39.055 29.9267 39.1676 29.866C39.289 29.7967 39.38 29.7057 39.4406 29.593C39.51 29.4803 39.5446 29.3503 39.5446 29.203C39.5446 28.9863 39.458 28.8087 39.2846 28.67C39.12 28.5313 38.8556 28.462 38.4916 28.462C38.1883 28.462 37.937 28.5183 37.7376 28.631C37.547 28.7437 37.3866 28.9127 37.2566 29.138L35.9436 28.436C36.1863 28.0113 36.533 27.6777 36.9836 27.435C37.443 27.1923 37.976 27.071 38.5826 27.071C39.0593 27.071 39.484 27.1447 39.8566 27.292C40.238 27.4393 40.537 27.6517 40.7536 27.929C40.9703 28.2063 41.0786 28.553 41.0786 28.969C41.0786 29.2637 41.005 29.5497 40.8576 29.827C40.719 30.1043 40.4893 30.308 40.1686 30.438C40.5846 30.5593 40.8966 30.7673 41.1046 31.062C41.3213 31.3567 41.4296 31.7033 41.4296 32.102C41.4296 32.5353 41.3083 32.9037 41.0656 33.207C40.823 33.5017 40.4936 33.727 40.0776 33.883C39.6616 34.0303 39.1806 34.104 38.6346 34.104ZM42.1849 31.985C42.1849 31.543 42.3062 31.1573 42.5489 30.828C42.8002 30.49 43.1469 30.23 43.5889 30.048C44.0309 29.866 44.5379 29.775 45.1099 29.775C45.3959 29.775 45.6862 29.7967 45.9809 29.84C46.2755 29.8833 46.5312 29.9527 46.7479 30.048V29.684C46.7479 29.2507 46.6179 28.917 46.3579 28.683C46.1065 28.449 45.7295 28.332 45.2269 28.332C44.8542 28.332 44.4989 28.397 44.1609 28.527C43.8229 28.657 43.4675 28.8477 43.0949 29.099L42.5359 27.955C42.9865 27.6603 43.4459 27.4393 43.9139 27.292C44.3905 27.1447 44.8889 27.071 45.4089 27.071C46.3795 27.071 47.1335 27.3137 47.6709 27.799C48.2169 28.2843 48.4899 28.9777 48.4899 29.879V32.05C48.4899 32.232 48.5202 32.362 48.5809 32.44C48.6502 32.518 48.7585 32.5657 48.9059 32.583V34C48.7499 34.026 48.6069 34.0477 48.4769 34.065C48.3555 34.0823 48.2515 34.091 48.1649 34.091C47.8182 34.091 47.5539 34.013 47.3719 33.857C47.1985 33.701 47.0902 33.5103 47.0469 33.285L47.0079 32.934C46.7132 33.3153 46.3449 33.61 45.9029 33.818C45.4609 34.026 45.0102 34.13 44.5509 34.13C44.1002 34.13 43.6929 34.039 43.3289 33.857C42.9735 33.6663 42.6919 33.4107 42.4839 33.09C42.2845 32.7607 42.1849 32.3923 42.1849 31.985ZM46.4229 32.336C46.5182 32.232 46.5962 32.128 46.6569 32.024C46.7175 31.92 46.7479 31.8247 46.7479 31.738V31.049C46.5399 30.9623 46.3145 30.8973 46.0719 30.854C45.8292 30.802 45.5995 30.776 45.3829 30.776C44.9322 30.776 44.5595 30.8757 44.2649 31.075C43.9789 31.2657 43.8359 31.5213 43.8359 31.842C43.8359 32.0153 43.8835 32.18 43.9789 32.336C44.0742 32.492 44.2129 32.6177 44.3949 32.713C44.5769 32.8083 44.7935 32.856 45.0449 32.856C45.3049 32.856 45.5605 32.8083 45.8119 32.713C46.0632 32.609 46.2669 32.4833 46.4229 32.336ZM50.1177 34V27.188H51.8597V29.762H52.4447L54.2907 27.188H56.1887L53.7707 30.477L56.4487 34H54.4597L52.4187 31.296H51.8597V34H50.1177ZM57.0003 31.985C57.0003 31.543 57.1216 31.1573 57.3643 30.828C57.6156 30.49 57.9623 30.23 58.4043 30.048C58.8463 29.866 59.3533 29.775 59.9253 29.775C60.2113 29.775 60.5016 29.7967 60.7963 29.84C61.091 29.8833 61.3466 29.9527 61.5633 30.048V29.684C61.5633 29.2507 61.4333 28.917 61.1733 28.683C60.922 28.449 60.545 28.332 60.0423 28.332C59.6696 28.332 59.3143 28.397 58.9763 28.527C58.6383 28.657 58.283 28.8477 57.9103 29.099L57.3513 27.955C57.802 27.6603 58.2613 27.4393 58.7293 27.292C59.206 27.1447 59.7043 27.071 60.2243 27.071C61.195 27.071 61.949 27.3137 62.4863 27.799C63.0323 28.2843 63.3053 28.9777 63.3053 29.879V32.05C63.3053 32.232 63.3356 32.362 63.3963 32.44C63.4656 32.518 63.574 32.5657 63.7213 32.583V34C63.5653 34.026 63.4223 34.0477 63.2923 34.065C63.171 34.0823 63.067 34.091 62.9803 34.091C62.6336 34.091 62.3693 34.013 62.1873 33.857C62.014 33.701 61.9056 33.5103 61.8623 33.285L61.8233 32.934C61.5286 33.3153 61.1603 33.61 60.7183 33.818C60.2763 34.026 59.8256 34.13 59.3663 34.13C58.9156 34.13 58.5083 34.039 58.1443 33.857C57.789 33.6663 57.5073 33.4107 57.2993 33.09C57.1 32.7607 57.0003 32.3923 57.0003 31.985ZM61.2383 32.336C61.3336 32.232 61.4116 32.128 61.4723 32.024C61.533 31.92 61.5633 31.8247 61.5633 31.738V31.049C61.3553 30.9623 61.13 30.8973 60.8873 30.854C60.6446 30.802 60.415 30.776 60.1983 30.776C59.7476 30.776 59.375 30.8757 59.0803 31.075C58.7943 31.2657 58.6513 31.5213 58.6513 31.842C58.6513 32.0153 58.699 32.18 58.7943 32.336C58.8896 32.492 59.0283 32.6177 59.2103 32.713C59.3923 32.8083 59.609 32.856 59.8603 32.856C60.1203 32.856 60.376 32.8083 60.6273 32.713C60.8786 32.609 61.0823 32.4833 61.2383 32.336ZM67.3641 34.104C66.6361 34.104 66.0295 33.974 65.5441 33.714C65.0588 33.454 64.6775 33.0943 64.4001 32.635L65.8041 31.998C65.9515 32.2233 66.1421 32.401 66.3761 32.531C66.6188 32.6523 66.9178 32.713 67.2731 32.713C67.6805 32.713 67.9925 32.635 68.2091 32.479C68.4345 32.3143 68.5471 32.102 68.5471 31.842C68.5471 31.5993 68.4561 31.4043 68.2741 31.257C68.0921 31.1097 67.8235 31.036 67.4681 31.036H66.7661V29.957H67.4811C67.6458 29.957 67.7845 29.9267 67.8971 29.866C68.0185 29.7967 68.1095 29.7057 68.1701 29.593C68.2395 29.4803 68.2741 29.3503 68.2741 29.203C68.2741 28.9863 68.1875 28.8087 68.0141 28.67C67.8495 28.5313 67.5851 28.462 67.2211 28.462C66.9178 28.462 66.6665 28.5183 66.4671 28.631C66.2765 28.7437 66.1161 28.9127 65.9861 29.138L64.6731 28.436C64.9158 28.0113 65.2625 27.6777 65.7131 27.435C66.1725 27.1923 66.7055 27.071 67.3121 27.071C67.7888 27.071 68.2135 27.1447 68.5861 27.292C68.9675 27.4393 69.2665 27.6517 69.4831 27.929C69.6998 28.2063 69.8081 28.553 69.8081 28.969C69.8081 29.2637 69.7345 29.5497 69.5871 29.827C69.4485 30.1043 69.2188 30.308 68.8981 30.438C69.3141 30.5593 69.6261 30.7673 69.8341 31.062C70.0508 31.3567 70.1591 31.7033 70.1591 32.102C70.1591 32.5353 70.0378 32.9037 69.7951 33.207C69.5525 33.5017 69.2231 33.727 68.8071 33.883C68.3911 34.0303 67.9101 34.104 67.3641 34.104Z" fill="white"/>
<path d="M54.5 51L65.3253 38.25H43.6747L54.5 51Z" fill="#337D5A"/>
</svg>
