<svg width="106" height="51" fill="none" xmlns="http://www.w3.org/2000/svg"><path fill="#337D5A" d="M0 0h106v45H0z"/><path d="M9.358 20v-9.23h7.475V20h-1.781v-7.657h-3.913V20H9.358zm13.332.13c-.529 0-.997-.117-1.404-.351a2.593 2.593 0 01-.936-.975v3.965h-1.742v-9.581h1.52v1.17c.26-.399.59-.71.989-.936a2.646 2.646 0 011.365-.351c.46 0 .88.091 1.26.273.39.182.729.438 1.015.767.286.32.507.693.663 1.118.165.416.247.867.247 1.352 0 .659-.13 1.257-.39 1.794a3.216 3.216 0 01-1.053 1.287 2.593 2.593 0 01-1.534.468zm-.585-1.482c.269 0 .511-.056.728-.169.217-.113.403-.264.559-.455.165-.2.286-.42.364-.663.087-.251.13-.511.13-.78 0-.286-.048-.55-.143-.793a1.779 1.779 0 00-.39-.637A1.811 1.811 0 0022 14.553c-.165 0-.334.03-.507.091a1.89 1.89 0 00-.481.234 2.092 2.092 0 00-.416.364c-.113.139-.195.29-.247.455v1.599c.104.251.243.481.416.689.182.208.39.373.624.494.234.113.472.169.715.169zm7.888 1.482a3.895 3.895 0 01-1.495-.273 3.383 3.383 0 01-1.13-.78 3.546 3.546 0 01-.703-1.131 3.67 3.67 0 01-.247-1.339 3.7 3.7 0 01.247-1.352 3.55 3.55 0 01.702-1.131 3.23 3.23 0 011.131-.767 3.75 3.75 0 011.495-.286c.555 0 1.049.095 1.482.286a3.23 3.23 0 011.833 1.898 3.7 3.7 0 01.247 1.352c0 .468-.082.914-.247 1.339-.156.425-.39.802-.702 1.131-.303.33-.676.59-1.118.78-.442.182-.94.273-1.495.273zm-1.78-3.523c0 .399.077.754.233 1.066.156.303.368.542.637.715.269.173.572.26.91.26.33 0 .629-.087.897-.26.269-.182.481-.425.637-.728.165-.312.247-.667.247-1.066 0-.39-.082-.741-.247-1.053a1.803 1.803 0 00-.637-.728 1.62 1.62 0 00-.897-.26c-.338 0-.641.091-.91.273a1.803 1.803 0 00-.637.728 2.27 2.27 0 00-.234 1.053zm9.69 3.523a3.895 3.895 0 01-1.495-.273 3.383 3.383 0 01-1.131-.78 3.778 3.778 0 01-.728-1.144 3.67 3.67 0 01-.247-1.339c0-.641.143-1.226.429-1.755.295-.537.71-.966 1.248-1.287.537-.32 1.174-.481 1.911-.481.737 0 1.37.16 1.898.481.529.32.923.741 1.183 1.261l-1.703.52a1.483 1.483 0 00-.585-.572 1.595 1.595 0 00-.806-.208 1.711 1.711 0 00-1.547.975 2.301 2.301 0 00-.234 1.066c0 .399.078.754.234 1.066.165.303.381.546.65.728.269.173.568.26.897.26a1.735 1.735 0 001.092-.39c.147-.121.256-.26.325-.416l1.703.52a2.755 2.755 0 01-.689.91 3.29 3.29 0 01-1.053.637c-.399.147-.85.221-1.352.221zm4.166-.13v-6.812h1.82l2.132 3.939 2.145-3.939h1.794V20h-1.651v-4.407l-1.742 3.198h-1.092l-1.755-3.198V20h-1.651zm12.642.13a3.895 3.895 0 01-1.495-.273 3.383 3.383 0 01-1.131-.78 3.542 3.542 0 01-.702-1.131 3.67 3.67 0 01-.247-1.339 3.7 3.7 0 01.247-1.352 3.55 3.55 0 01.702-1.131 3.23 3.23 0 011.131-.767 3.75 3.75 0 011.495-.286c.555 0 1.049.095 1.482.286a3.23 3.23 0 011.833 1.898 3.7 3.7 0 01.247 1.352c0 .468-.082.914-.247 1.339-.156.425-.39.802-.702 1.131-.303.33-.676.59-1.118.78-.442.182-.94.273-1.495.273zm-1.781-3.523c0 .399.078.754.234 1.066.156.303.368.542.637.715.269.173.572.26.91.26.33 0 .628-.087.897-.26.269-.182.481-.425.637-.728a2.25 2.25 0 00.247-1.066c0-.39-.082-.741-.247-1.053a1.804 1.804 0 00-.637-.728 1.62 1.62 0 00-.897-.26c-.338 0-.641.091-.91.273a1.803 1.803 0 00-.637.728 2.27 2.27 0 00-.234 1.053zM61.022 20v-5.291h-2.158v-1.521h6.07v1.521h-2.17V20h-1.742zm8.97.13c-.528 0-.996-.117-1.403-.351a2.592 2.592 0 01-.936-.975v3.965H65.91v-9.581h1.52v1.17c.26-.399.59-.71.989-.936a2.645 2.645 0 011.365-.351c.459 0 .88.091 1.26.273.39.182.729.438 1.015.767.286.32.507.693.663 1.118.164.416.247.867.247 1.352 0 .659-.13 1.257-.39 1.794a3.217 3.217 0 01-1.053 1.287 2.593 2.593 0 01-1.534.468zm-.584-1.482c.268 0 .511-.056.728-.169.216-.113.403-.264.559-.455.164-.2.286-.42.364-.663a2.39 2.39 0 00.13-.78c0-.286-.048-.55-.143-.793a1.781 1.781 0 00-.39-.637 1.812 1.812 0 00-1.352-.598c-.165 0-.334.03-.507.091a1.89 1.89 0 00-.481.234 2.09 2.09 0 00-.416.364c-.113.139-.195.29-.247.455v1.599c.104.251.242.481.416.689.182.208.39.373.624.494.234.113.472.169.715.169zm7.9 1.482c-.545 0-1.04-.091-1.481-.273a3.48 3.48 0 01-1.131-.767 3.66 3.66 0 01-.728-1.118 3.673 3.673 0 01-.247-1.339c0-.65.143-1.244.429-1.781.295-.537.71-.966 1.248-1.287.546-.33 1.187-.494 1.924-.494.745 0 1.382.165 1.91.494.53.32.933.75 1.21 1.287.286.529.429 1.1.429 1.716 0 .104-.004.212-.013.325-.009.104-.017.19-.026.26h-5.265c.035.347.134.65.299.91.173.26.39.46.65.598a2.012 2.012 0 001.833-.052c.312-.173.524-.399.637-.676l1.495.416a2.796 2.796 0 01-.715.923 3.418 3.418 0 01-1.08.637 4.104 4.104 0 01-1.377.221zm-1.78-4.082h3.562a1.966 1.966 0 00-.3-.897 1.59 1.59 0 00-.623-.598 1.736 1.736 0 00-.871-.221 1.71 1.71 0 00-.858.221c-.251.139-.46.338-.624.598-.156.251-.251.55-.286.897zM83.505 20v-5.291h-2.158v-1.521h6.071v1.521h-2.17V20h-1.743zm4.89 0v-6.812h1.741v2.145h1.547c.815 0 1.439.208 1.872.624.433.416.65.966.65 1.651 0 .46-.09.871-.273 1.235-.182.364-.45.65-.806.858-.355.2-.797.299-1.326.299h-3.406zm1.741-1.326h1.391c.234 0 .425-.048.572-.143a.833.833 0 00.338-.377c.078-.156.117-.334.117-.533 0-.19-.035-.36-.104-.507a.764.764 0 00-.338-.364c-.147-.095-.347-.143-.598-.143h-1.378v2.067zm-51.501 15.43c-.728 0-1.335-.13-1.82-.39a2.92 2.92 0 01-1.144-1.079l1.404-.637c.147.225.338.403.572.533.242.121.541.182.897.182.407 0 .719-.078.936-.234a.756.756 0 00.338-.637.715.715 0 00-.273-.585c-.182-.147-.451-.221-.806-.221h-.702v-1.079h.715c.164 0 .303-.03.416-.091a.688.688 0 00.273-.273.728.728 0 00.104-.39.652.652 0 00-.26-.533c-.165-.139-.43-.208-.793-.208-.304 0-.555.056-.754.169a1.36 1.36 0 00-.481.507l-1.313-.702a2.567 2.567 0 011.04-1.001c.459-.243.992-.364 1.599-.364.476 0 .901.074 1.274.221.381.147.68.36.897.637.216.277.325.624.325 1.04 0 .295-.074.58-.221.858-.139.277-.369.481-.69.611.417.121.729.33.937.624.216.295.325.641.325 1.04 0 .433-.122.802-.364 1.105-.243.295-.572.52-.988.676-.416.147-.897.221-1.443.221zm3.55-2.119c0-.442.121-.828.364-1.157.251-.338.598-.598 1.04-.78.442-.182.949-.273 1.52-.273.287 0 .577.022.872.065.294.043.55.113.767.208v-.364c0-.433-.13-.767-.39-1.001-.252-.234-.628-.351-1.131-.351-.373 0-.728.065-1.066.195a5.39 5.39 0 00-1.066.572l-.56-1.144c.452-.295.91-.516 1.379-.663a5.034 5.034 0 011.495-.221c.97 0 1.724.243 2.262.728.546.485.819 1.179.819 2.08v2.171c0 .182.03.312.09.39.07.078.178.126.326.143V34c-.156.026-.3.048-.43.065a2.263 2.263 0 01-.311.026c-.347 0-.611-.078-.793-.234a1.007 1.007 0 01-.325-.572l-.04-.351a2.979 2.979 0 01-1.104.884 3.145 3.145 0 01-1.352.312c-.45 0-.858-.091-1.222-.273a2.259 2.259 0 01-.845-.767c-.2-.33-.3-.698-.3-1.105zm4.238.351c.095-.104.173-.208.234-.312.06-.104.09-.2.09-.286v-.689a3.225 3.225 0 00-.675-.195 3.294 3.294 0 00-.69-.078c-.45 0-.822.1-1.117.299-.286.19-.43.446-.43.767 0 .173.048.338.144.494.095.156.234.282.416.377.182.095.398.143.65.143.26 0 .515-.048.767-.143.251-.104.455-.23.61-.377zM50.118 34v-6.812h1.742v2.574h.585l1.846-2.574h1.898l-2.418 3.289L56.449 34h-1.99l-2.04-2.704h-.56V34h-1.741zM57 31.985c0-.442.122-.828.364-1.157.252-.338.598-.598 1.04-.78.442-.182.95-.273 1.521-.273.286 0 .577.022.871.065.295.043.55.113.767.208v-.364c0-.433-.13-.767-.39-1.001-.251-.234-.628-.351-1.13-.351-.373 0-.729.065-1.067.195-.338.13-.693.32-1.066.572l-.559-1.144c.451-.295.91-.516 1.378-.663a5.035 5.035 0 011.495-.221c.971 0 1.725.243 2.262.728.546.485.82 1.179.82 2.08v2.171c0 .182.03.312.09.39.07.078.178.126.325.143V34c-.156.026-.299.048-.429.065a2.26 2.26 0 01-.312.026c-.346 0-.61-.078-.793-.234a1.007 1.007 0 01-.325-.572l-.039-.351a2.979 2.979 0 01-1.105.884 3.145 3.145 0 01-1.352.312c-.45 0-.858-.091-1.222-.273a2.26 2.26 0 01-.845-.767A2.098 2.098 0 0157 31.985zm4.238.351c.096-.104.174-.208.234-.312a.576.576 0 00.091-.286v-.689a3.223 3.223 0 00-.676-.195 3.293 3.293 0 00-.689-.078c-.45 0-.823.1-1.118.299-.286.19-.429.446-.429.767 0 .173.048.338.143.494.096.156.234.282.416.377.182.095.399.143.65.143.26 0 .516-.048.767-.143.252-.104.455-.23.611-.377zm6.126 1.768c-.728 0-1.335-.13-1.82-.39a2.92 2.92 0 01-1.144-1.079l1.404-.637c.147.225.338.403.572.533.243.121.542.182.897.182.407 0 .72-.078.936-.234a.756.756 0 00.338-.637.715.715 0 00-.273-.585c-.182-.147-.45-.221-.806-.221h-.702v-1.079h.715c.165 0 .303-.03.416-.091a.688.688 0 00.273-.273.728.728 0 00.104-.39.652.652 0 00-.26-.533c-.164-.139-.429-.208-.793-.208-.303 0-.555.056-.754.169a1.36 1.36 0 00-.48.507l-1.314-.702a2.58 2.58 0 011.04-1.001c.46-.243.993-.364 1.6-.364.476 0 .9.074 1.273.221.382.147.68.36.897.637.217.277.325.624.325 1.04 0 .295-.074.58-.22.858-.14.277-.37.481-.69.611.416.121.728.33.936.624.217.295.325.641.325 1.04 0 .433-.121.802-.364 1.105-.243.295-.572.52-.988.676-.416.147-.897.221-1.443.221z" fill="#fff"/><path d="M54.5 51l10.825-12.75h-21.65L54.5 51z" fill="#337D5A"/></svg>