<svg width="13" height="13" viewBox="0 0 13 13" fill="none" xmlns="http://www.w3.org/2000/svg">
<path d="M3.42647 6.9238H4.85148V12.7903C4.85148 12.9061 4.94534 13 5.06116 13H7.47732C7.59314 13 7.68699 12.9061 7.68699 12.7903V6.95144H9.32516C9.43168 6.95144 9.52129 6.87151 9.53345 6.7657L9.78226 4.60594C9.78909 4.54652 9.77026 4.48701 9.73051 4.44244C9.69071 4.39782 9.63376 4.37228 9.57401 4.37228H7.68708V3.01843C7.68708 2.61032 7.90682 2.40336 8.34026 2.40336C8.40204 2.40336 9.57401 2.40336 9.57401 2.40336C9.68983 2.40336 9.78368 2.30947 9.78368 2.19369V0.211229C9.78368 0.0954032 9.68983 0.00155161 9.57401 0.00155161H7.87373C7.86174 0.000964516 7.83511 0 7.79586 0C7.50084 0 6.47539 0.0579128 5.66537 0.803106C4.76786 1.6289 4.89262 2.61766 4.92244 2.78909V4.37224H3.42647C3.31065 4.37224 3.2168 4.46609 3.2168 4.58191V6.71408C3.2168 6.82991 3.31065 6.9238 3.42647 6.9238Z" fill="#EFEFEF"/>
</svg>
