<svg width="11" height="11" viewBox="0 0 11 11" fill="none" xmlns="http://www.w3.org/2000/svg">
<path d="M5.49977 5.37972C6.72278 5.37972 7.71432 4.17544 7.71432 2.68988C7.71432 1.20428 7.38879 0 5.49977 0C3.61076 0 3.28516 1.20428 3.28516 2.68988C3.28516 4.17544 4.2767 5.37972 5.49977 5.37972Z" fill="#93B474"/>
<path d="M9.68262 9.55756C9.68381 9.53276 9.68303 9.38552 9.68262 9.55756V9.55756Z" fill="#93B474"/>
<path d="M9.67726 9.3782C9.63624 6.79031 9.29826 6.0529 6.71191 5.58612C6.71191 5.58612 6.34784 6.05004 5.49927 6.05004C4.6507 6.05004 4.28656 5.58612 4.28656 5.58612C1.72843 6.04781 1.3699 6.77428 1.32275 9.29412C1.31889 9.49989 1.3171 9.5107 1.31641 9.48681C1.31656 9.53157 1.31675 9.61435 1.31675 9.7587C1.31675 9.7587 1.9325 11 5.49927 11C9.06597 11 9.68178 9.7587 9.68178 9.7587C9.68178 9.66596 9.68185 9.60147 9.68194 9.55759C9.68125 9.57236 9.67987 9.54373 9.67726 9.3782Z" fill="#93B474"/>
</svg>
