<svg width="31" height="31" viewBox="0 0 31 31" fill="none" xmlns="http://www.w3.org/2000/svg">
<circle cx="15.5" cy="15.5" r="15.5" fill="#337D5A"/>
<g clip-path="url(#clip0_338_430)">
<path d="M12.1536 23.9995C11.9639 23.9997 11.8102 23.8454 11.8102 23.6558C11.8102 22.7905 11.8086 21.9236 11.8118 21.0583C11.8118 20.9598 11.7785 20.9028 11.6864 20.8705C11.5102 20.8073 11.3356 20.7381 11.1562 20.6811C10.0912 20.3454 9.35782 19.6464 8.84354 18.7072C8.56259 18.1914 8.39275 17.6386 8.26259 17.072C8.05148 16.1543 7.97846 15.2243 8.00386 14.2851C8.02132 13.6785 8.07211 13.0749 8.16576 12.4759C8.23878 12.0033 8.30544 11.5275 8.41497 11.0609C8.67211 9.97082 9.28481 9.10089 10.2086 8.43727C10.7753 8.03078 11.4054 7.74594 12.0721 7.53345C12.6166 7.35947 13.1769 7.24553 13.7435 7.1593C14.5515 7.03613 15.3642 6.97916 16.18 7.00533C16.6785 7.02227 17.1785 7.05768 17.6753 7.10541C18.3816 7.17316 19.0816 7.28402 19.7689 7.46109C20.4277 7.63046 21.0546 7.87373 21.6308 8.23095C22.6324 8.84991 23.2546 9.73217 23.5594 10.8377C23.7515 11.5336 23.8785 12.2419 23.9435 12.9594C24.0134 13.7277 24.015 14.4961 23.9673 15.2659C23.9388 15.7217 23.9023 16.1759 23.8213 16.6255C23.6642 17.5016 23.3975 18.3407 22.9372 19.1137C22.5896 19.6957 22.0927 20.1376 21.4927 20.4717C20.9689 20.7627 20.4039 20.949 19.8181 21.0768C19.3546 21.1784 18.8864 21.2385 18.4134 21.2754C17.3483 21.3555 16.2832 21.3878 15.215 21.4155C15.18 21.4171 15.134 21.4309 15.1118 21.4556C14.4705 22.1361 13.7848 22.7751 13.107 23.4202C12.9166 23.6019 12.7245 23.7836 12.5293 23.9622C12.507 23.9838 12.4689 23.9976 12.4372 23.9976C12.3429 23.999 12.2486 23.9995 12.1536 23.9995ZM12.5719 22.8052C12.5699 22.8332 12.6055 22.8497 12.6245 22.829C12.8515 22.6134 13.0816 22.4025 13.3054 22.1823C13.7166 21.7789 14.1245 21.3724 14.5293 20.9613C14.7118 20.7766 14.9308 20.6826 15.1896 20.6734C15.9451 20.6441 16.7007 20.621 17.4546 20.5918C18.0753 20.5671 18.6943 20.524 19.307 20.4193C19.9039 20.3177 20.48 20.1576 21.0181 19.882C21.6181 19.5756 22.0848 19.1383 22.3896 18.5486C22.7483 17.8542 22.9753 17.1182 23.0943 16.3499C23.1864 15.7509 23.2213 15.1473 23.234 14.5438C23.2531 13.7154 23.2023 12.8901 23.0578 12.0725C22.9785 11.6245 22.8816 11.181 22.7356 10.7499C22.4975 10.0447 22.0832 9.45964 21.4642 9.0162C20.9689 8.66207 20.4166 8.42033 19.8308 8.24634C19.3404 8.10161 18.8388 8.00769 18.334 7.93224C17.8118 7.85526 17.288 7.79521 16.7626 7.76441C16.0134 7.71976 15.2642 7.72746 14.5166 7.80598C13.934 7.86603 13.3578 7.9538 12.7912 8.09699C12.0975 8.27098 11.4404 8.52503 10.8372 8.90534C9.95624 9.46118 9.38163 10.231 9.15782 11.2288C9.05465 11.6876 8.98798 12.1557 8.91497 12.6207C8.82767 13.1888 8.78005 13.7601 8.76576 14.3328C8.74671 15.0288 8.78798 15.7217 8.90703 16.4084C8.99116 16.8903 9.10386 17.3661 9.27529 17.8265C9.47687 18.3638 9.75941 18.8534 10.1832 19.2584C10.48 19.5417 10.8118 19.7727 11.2134 19.902C11.4531 19.979 11.688 20.0729 11.9245 20.1637C12.0975 20.23 12.2578 20.3177 12.3785 20.4609C12.5245 20.6334 12.5721 20.8351 12.5721 21.0537C12.5721 21.6373 12.5721 22.2193 12.5721 22.8028C12.572 22.8036 12.572 22.8044 12.5719 22.8052Z" fill="white"/>
<path d="M18.4188 19.1946C18.2744 19.193 18.0966 19.1499 17.9252 19.0791C16.7188 18.5833 15.5998 17.9459 14.595 17.1267C13.6331 16.343 12.8299 15.4269 12.1664 14.3922C11.7791 13.7902 11.4839 13.1481 11.2283 12.486C11.1791 12.3598 11.1125 12.2381 11.0871 12.1073C10.968 11.4914 11.2029 11.0125 11.7125 10.6491C11.9363 10.4906 12.1902 10.392 12.4617 10.3381C12.722 10.2858 12.9426 10.3735 13.1299 10.5444C13.4998 10.8801 13.8188 11.2573 14.0839 11.6761C14.2077 11.8701 14.3204 12.0718 14.4267 12.2751C14.5855 12.5784 14.5299 12.8355 14.2664 13.0619C14.1664 13.1466 14.0601 13.2251 13.9585 13.3082C13.6109 13.5962 13.5315 13.8825 13.6998 14.2952C13.9506 14.9142 14.3426 15.4361 14.8632 15.8688C15.2617 16.1998 15.7093 16.4508 16.1934 16.6417C16.5363 16.7772 16.8347 16.6525 17.0442 16.3615C17.141 16.226 17.241 16.0967 17.3823 16.0027C17.6426 15.8303 17.9204 15.8303 18.2061 15.9288C18.3982 15.995 18.568 16.1028 18.7299 16.2198C19.1029 16.4893 19.4807 16.7557 19.849 17.0313C20.0204 17.1591 20.149 17.3223 20.1823 17.5394C20.2045 17.6949 20.1648 17.8412 20.1029 17.9828C19.8871 18.4663 19.5252 18.8143 19.0379 19.0406C18.7886 19.1622 18.6537 19.1946 18.4188 19.1946Z" fill="white"/>
<path d="M16.4629 9.58521C17.62 9.59136 18.6724 10.0286 19.5105 10.9232C20.0756 11.5283 20.4121 12.2428 20.5248 13.0526C20.5914 13.5238 20.5692 13.9934 20.4645 14.4584C20.4248 14.6355 20.3041 14.7479 20.1375 14.7617C19.9613 14.7756 19.7978 14.6863 19.7343 14.5416C19.6994 14.4599 19.7041 14.3768 19.7216 14.2921C19.9232 13.3283 19.7438 12.4383 19.1407 11.6453C18.5883 10.9201 17.8391 10.4936 16.9184 10.3597C16.4994 10.2981 16.0851 10.3243 15.6708 10.4105C15.4676 10.4521 15.2851 10.3304 15.2407 10.1318C15.193 9.92702 15.301 9.7438 15.5041 9.69452C15.7899 9.6237 16.0803 9.59444 16.4629 9.58521Z" fill="white"/>
<path d="M19.4 13.2035C19.4403 13.4804 19.4295 13.7632 19.3917 14.0404C19.3883 14.0647 19.3848 14.0891 19.3809 14.1135C19.3492 14.3137 19.1778 14.4276 18.9587 14.403C18.7555 14.3799 18.6159 14.2228 18.6301 14.0258C18.6397 13.8903 18.6651 13.7548 18.6666 13.6177C18.6778 12.6539 18.0397 11.8086 17.0889 11.5283C16.7539 11.4298 16.4111 11.4067 16.0651 11.4652C15.7095 11.5268 15.5508 11.2158 15.6206 10.9833C15.6619 10.8493 15.7587 10.7662 15.8984 10.7431C16.9381 10.5799 17.8381 10.857 18.5809 11.5807C19.0413 12.0287 19.3095 12.5769 19.4 13.2035Z" fill="white"/>
<path d="M16.4121 11.8055C17.3359 11.8178 18.1374 12.503 18.2613 13.3806C18.2771 13.4961 18.2882 13.6162 18.274 13.7301C18.2486 13.9272 18.0787 14.0396 17.8597 14.0227C17.6676 14.0088 17.5263 13.8656 17.5232 13.6747C17.5216 13.4437 17.466 13.2282 17.3311 13.0372C17.1009 12.7124 16.7803 12.5507 16.374 12.543C16.2105 12.5399 16.0835 12.4752 16.0232 12.3244C15.9628 12.1719 15.9835 12.0287 16.1009 11.9071C16.1898 11.8193 16.3009 11.7993 16.4121 11.8055Z" fill="white"/>
</g>
<defs>
<clipPath id="clip0_338_430">
<rect width="16" height="17" fill="white" transform="translate(8 7)"/>
</clipPath>
</defs>
</svg>
